<?xml version="1.0" encoding="UTF-8"?>
<svg width="131px" height="148px" viewBox="0 0 131 148" version="1.1" xmlns="http://www.w3.org/2000/svg" xmlns:xlink="http://www.w3.org/1999/xlink">
    <!-- Generator: Sketch 58 (84663) - https://sketch.com -->
    <title>Group 2</title>
    <desc>Created with Sketch.</desc>
    <defs>
        <linearGradient x1="0%" y1="50%" x2="100%" y2="50%" id="linearGradient-1">
            <stop stop-color="#3FC846" offset="0%"></stop>
            <stop stop-color="#04A20B" offset="100%"></stop>
        </linearGradient>
    </defs>
    <g id="Page-1" stroke="none" stroke-width="1" fill="none" fill-rule="evenodd">
        <g id="Launchboard" transform="translate(-122.000000, -306.000000)">
            <g id="Group-2" transform="translate(121.500000, 306.000000)">
                <g id="iterative" transform="translate(16.500000, 0.000000)" fill="url(#linearGradient-1)" fill-rule="nonzero">
                    <path d="M100,50 C100,71.7033387 86.1770629,90.2580262 66.6664123,97.1542359 C64.6354676,97.8721619 62.4015809,96.8093871 61.681366,94.7731018 C60.962677,92.7391053 62.0292664,90.5067443 64.0632629,89.7880555 C80.8853148,83.8424684 92.1875,67.8527832 92.1875,50 C92.1875,30.1368713 78.5781859,13.8847352 60.8238221,9.20639043 L68.1266785,16.5092469 C69.6517945,18.0343629 69.6517945,20.5078125 68.1266785,22.0329285 C66.6007996,23.5580445 64.1281129,23.5588074 62.602234,22.0329285 L47.2373963,6.66809082 C44.7807312,4.21142578 46.5301514,-2.84217094e-14 50,-2.84217094e-14 C77.6374816,-2.84217094e-14 100,22.366333 100,50 Z M37.397766,77.9670715 C35.8718871,76.4411926 33.3992004,76.4411926 31.8733215,77.9670715 C30.3482055,79.4921875 30.3482055,81.9656371 31.8733215,83.4907531 L39.1761779,90.7936096 C21.4218141,86.1152648 7.8125,69.8631287 7.8125,50 C7.8125,32.1472168 19.1146852,16.1575316 35.9375,10.2119445 C37.9714965,9.49325566 39.037323,7.26165781 38.318634,5.22766113 C37.5999451,3.19366445 35.3683473,2.1270752 33.3335877,2.84652715 C13.8229371,9.74197383 0,28.2966613 0,50 C0,77.633667 22.3625184,100 50,100 C53.4698486,100 55.2192688,95.7885742 52.7618408,93.3319092 L37.397766,77.9670715 Z M50,30.7289123 C60.6262207,30.7289123 69.2710877,39.3737793 69.2710877,50 C69.2710877,60.6262207 60.6262207,69.2710877 50,69.2710877 C39.3737793,69.2710877 30.7289123,60.6262207 30.7289123,50 C30.7289123,39.3737793 39.3737793,30.7289123 50,30.7289123 L50,30.7289123 Z M38.5414123,50 C38.5414123,56.3179016 43.6820984,61.4585877 50,61.4585877 C56.3179016,61.4585877 61.4585877,56.3179016 61.4585877,50 C61.4585877,43.6820984 56.3179016,38.5414123 50,38.5414123 C43.6820984,38.5414123 38.5414123,43.6820984 38.5414123,50 L38.5414123,50 Z" id="Shape"></path>
                </g>
                <text id="ayotrash" font-family="SFCompactRounded-Black, SF Compact Rounded" font-size="30" font-weight="700" letter-spacing="0.6400002" fill="#000000">
                    <tspan x="0.492245294" y="142">ayotrash</tspan>
                </text>
            </g>
        </g>
    </g>
</svg>