<?xml version="1.0" encoding="iso-8859-1"?>
<!-- Generator: Adobe Illustrator 19.0.0, SVG Export Plug-In . SVG Version: 6.00 Build 0)  -->
<svg version="1.1" id="Capa_1" xmlns="http://www.w3.org/2000/svg" xmlns:xlink="http://www.w3.org/1999/xlink" x="0px" y="0px"
	 viewBox="0 0 464 464" style="enable-background:new 0 0 464 464;" xml:space="preserve">
<g>
	<polygon style="fill:#5AAAE7;" points="240,112 224,0 112,40 128,144 	"/>
	<polygon style="fill:#5AAAE7;" points="464,104 448,0 336,40 352,144 	"/>
	<polygon style="fill:#5AAAE7;" points="240,112 232,224 336,256 352,144 	"/>
</g>
<g>
	<polygon style="fill:#1E81CE;" points="352,144 336,40 224,0 240,112 	"/>
	<polygon style="fill:#1E81CE;" points="336,256 448,216 464,104 352,144 	"/>
	<polygon style="fill:#1E81CE;" points="240,320 352,360 336,256 232,224 	"/>
	<polygon style="fill:#1E81CE;" points="240,112 128,144 112,256 232,224 	"/>
</g>
<g>
	<polygon style="fill:#5AAAE7;" points="112,256 128,360 240,320 232,224 	"/>
	<polygon style="fill:#5AAAE7;" points="336,256 352,360 464,320 448,216 	"/>
	<polygon style="fill:#5AAAE7;" points="240,320 224,424 336,464 352,360 	"/>
</g>
<g>
	<polygon style="fill:#1E81CE;" points="128,360 112,464 224,424 240,320 	"/>
	<polygon style="fill:#1E81CE;" points="336,464 448,424 464,320 352,360 	"/>
</g>
<polygon style="fill:#5AAAE7;" points="128,144 16,104 0,216 112,256 "/>
<polygon style="fill:#1E81CE;" points="112,40 0,0 16,104 128,144 "/>
<polygon style="fill:#5AAAE7;" points="16,320 0,424 112,464 128,360 "/>
<polygon style="fill:#1E81CE;" points="112,256 0,216 16,320 128,360 "/>
<path style="fill:#F40E34;" d="M296,144c0,1.12,0,2.16-0.08,3.28c-0.88,34.4-16.08,66.88-42.08,89.6L232,256l-21.84-19.12
	c-26-22.72-41.2-55.2-42.08-89.6C168,146.16,168,145.12,168,144c0-35.36,28.64-64,64-64S296,108.64,296,144z"/>
<circle style="fill:#FFFFFF;" cx="232" cy="144" r="32"/>
<g>
</g>
<g>
</g>
<g>
</g>
<g>
</g>
<g>
</g>
<g>
</g>
<g>
</g>
<g>
</g>
<g>
</g>
<g>
</g>
<g>
</g>
<g>
</g>
<g>
</g>
<g>
</g>
<g>
</g>
</svg>
