<?xml version="1.0" encoding="iso-8859-1"?>
<!-- Generator: Adobe Illustrator 19.0.0, SVG Export Plug-In . SVG Version: 6.00 Build 0)  -->
<svg version="1.1" id="Capa_1" xmlns="http://www.w3.org/2000/svg" xmlns:xlink="http://www.w3.org/1999/xlink" x="0px" y="0px"
	 viewBox="0 0 472 472" style="enable-background:new 0 0 472 472;" xml:space="preserve">
<circle style="fill:#5AAAE7;" cx="240" cy="224" r="120"/>
<polygon points="120.32,224 120,224 120,208 "/>
<g>
	<path style="fill:#5EAC24;" d="M264,128l16,24l16-16h25.391c-21.399-19.802-49.937-32-81.391-32
		c-7.494,0-14.796,0.777-21.909,2.091L240,128H264z"/>
	<path style="fill:#5EAC24;" d="M192,232h48l32-24l-16-24h-48l-48.662-48.662C135.227,157.287,120,188.826,120,224
		c0,14.048,2.539,27.472,6.975,40H160L192,232z"/>
	<path style="fill:#5EAC24;" d="M336,208l-24,24h-24l-24,24l16,16h16v24l-32,24v21.59c54.772-11.12,96-59.537,96-117.59
		c0-5.439-0.488-10.753-1.189-16H336z"/>
</g>
<path style="fill:#FFD422;" d="M448,304v104h-32v-28.24C373.44,401.92,310.4,416,240,416C111.84,416,8,369.44,8,312
	c0-12.08,4.56-23.68,13.12-34.48L40,304h25.04c9.76,36,84.4,64,174.96,64c61.04,0,114.8-12.72,146.4-32H352v-32H448z"/>
<g>
	<path style="fill:#E7B900;" d="M360,223.04V224c0,6.4-0.48,12.64-1.52,18.72C393.76,255.92,416,274.88,416,296
		c0,2.72-0.4,5.36-1.04,8H448v54.08c15.36-13.84,24-29.52,24-46.08C472,274.24,427.12,241.2,360,223.04z"/>
	<path style="fill:#E7B900;" d="M72,280h40v24H40l-18.88-26.48L0,248l16-16l21.76,29.04c19.68-15.68,48.08-28.72,82.24-38V224
		c0,6.4,0.48,12.72,1.44,18.8c-25.28,9.36-43.76,21.76-52.24,35.84L72,280z"/>
</g>
<g>
	<path style="fill:#F40E34;" d="M353.12,104c-17.44,0-32.4,10.88-38.32,26.24c-0.72,1.84-1.36,3.76-1.76,5.76
		c-0.72,2.96-1.04,6-1.04,9.12c0,0.72,0,1.36,0.08,2.08c0.56,22.16,10.32,42.96,27.04,57.6l3.68,3.2l10.32,9.04l6.24-5.44l7.76-6.8
		c16.72-14.64,26.48-35.44,27.04-57.6c0.08-0.72,0.08-1.36,0.08-2.08C394.24,122.4,375.84,104,353.12,104z M353.12,165.68
		c-3.52,0-6.8-0.88-9.68-2.4c-0.08-0.08-0.08-0.08-0.08-0.08c-5.68-3.04-9.68-8.64-10.64-15.2c0,0,0,0,0-0.08
		c-0.08-0.88-0.16-1.84-0.16-2.8c0-11.36,9.2-20.56,20.56-20.56c11.36,0,20.56,9.2,20.56,20.56
		C373.68,156.48,364.48,165.68,353.12,165.68z"/>
	<path style="fill:#F40E34;" d="M137.12,56C114.4,56,96,74.4,96,97.12c0,0.72,0,1.36,0.08,2.08c0.56,22.16,10.32,42.96,27.04,57.6
		l11.36,9.92v0.08l2.64,2.24l14-12.24c5.36-4.72,10-10.08,13.84-15.84c3.52-5.28,6.32-10.88,8.48-16.8
		c2.88-7.92,4.56-16.4,4.72-24.96c0.08-0.72,0.08-1.36,0.08-2.08C178.24,74.4,159.84,56,137.12,56z M116.56,97.12
		c0-11.36,9.2-20.56,20.56-20.56c11.36,0,20.56,9.2,20.56,20.56c0,11.36-9.2,20.56-20.56,20.56
		C125.76,117.68,116.56,108.48,116.56,97.12z"/>
	<path style="fill:#F40E34;" d="M239.52,234c-2.88-19.84-19.92-35.12-40.64-35.12c-16.88,0-31.44,10.16-37.76,24.8
		c-2.16,5.04-3.36,10.48-3.36,16.32c0,0.72,0,1.36,0.08,2.08c0.56,22.16,10.32,42.96,27.04,57.6l14,12.24l14-12.24
		c16.72-14.64,26.48-35.44,27.04-57.6c0.08-0.72,0.08-1.36,0.08-2.08C240,238,239.84,236,239.52,234z M198.88,260.56
		c-0.4,0-0.8,0-1.12-0.08c-10.88-0.56-19.44-9.52-19.44-20.48c0-11.36,9.2-20.56,20.56-20.56c11.36,0,20.56,9.2,20.56,20.56
		C219.44,251.36,210.24,260.56,198.88,260.56z"/>
</g>
<g>
</g>
<g>
</g>
<g>
</g>
<g>
</g>
<g>
</g>
<g>
</g>
<g>
</g>
<g>
</g>
<g>
</g>
<g>
</g>
<g>
</g>
<g>
</g>
<g>
</g>
<g>
</g>
<g>
</g>
</svg>
